<?xml version="1.0" encoding="UTF-8" standalone="no"?>
<!-- Created with Inkscape (http://www.inkscape.org/) -->

<svg
   xmlns:dc="http://purl.org/dc/elements/1.1/"
   xmlns:cc="http://creativecommons.org/ns#"
   xmlns:rdf="http://www.w3.org/1999/02/22-rdf-syntax-ns#"
   xmlns:svg="http://www.w3.org/2000/svg"
   xmlns="http://www.w3.org/2000/svg"
   xmlns:sodipodi="http://sodipodi.sourceforge.net/DTD/sodipodi-0.dtd"
   xmlns:inkscape="http://www.inkscape.org/namespaces/inkscape"
   width="210mm"
   height="297mm"
   viewBox="0 0 210 297"
   version="1.1"
   id="svg8"
   inkscape:version="0.92.0 r15299"
   sodipodi:docname="inkscapelogo.svg">
  <defs
     id="defs2">
    <inkscape:perspective
       id="perspective4171"
       inkscape:persp3d-origin="670.66129 : 541.02864 : 1"
       inkscape:vp_z="754.21401 : 943.77056 : 1"
       inkscape:vp_y="-799.04668 : 601.26897 : 0"
       inkscape:vp_x="306.81308 : 349.2043 : 1"
       sodipodi:type="inkscape:persp3d" />
  </defs>
  <sodipodi:namedview
     id="base"
     pagecolor="#ffffff"
     bordercolor="#666666"
     borderopacity="1.0"
     inkscape:pageopacity="0.0"
     inkscape:pageshadow="2"
     inkscape:zoom="0.35"
     inkscape:cx="400"
     inkscape:cy="560"
     inkscape:document-units="mm"
     inkscape:current-layer="layer1-5"
     showgrid="false"
     inkscape:window-width="462"
     inkscape:window-height="405"
     inkscape:window-x="591"
     inkscape:window-y="167"
     inkscape:window-maximized="0" />
  <metadata
     id="metadata5">
    <rdf:RDF>
      <cc:Work
         rdf:about="">
        <dc:format>image/svg+xml</dc:format>
        <dc:type
           rdf:resource="http://purl.org/dc/dcmitype/StillImage" />
        <dc:title></dc:title>
      </cc:Work>
    </rdf:RDF>
  </metadata>
  <g
     inkscape:label="Layer 1"
     inkscape:groupmode="layer"
     id="layer1">
    <g
       id="layer1-5"
       inkscape:label="Layer 1"
       transform="matrix(0.28222222,0,0,0.28222222,-0.453568,25.148017)">
      <path
         inkscape:connector-curvature="0"
         id="path3342"
         d="m 365.54328,380.45263 a 87.398613,106.49571 0 0 0 -87.15794,100.67145 c 0.19926,0.0184 0.41468,0.0871 0.59063,0 0.35437,-0.17543 0.48445,-0.65732 0.83882,-0.83274 0.25059,-0.12404 0.64304,0.19612 0.84114,0 0.19811,-0.19612 -0.1981,-0.6366 0,-0.83273 0.19811,-0.19612 0.59054,-0.12404 0.84112,0 0.35437,0.17542 0.56098,0.55538 0.84114,0.83273 0.28015,0.27737 0.66165,0.4819 0.83883,0.83274 0.12528,0.24807 -0.12528,0.58238 0,0.83045 0.17719,0.35084 0.56097,0.55536 0.84113,0.83272 l 0.84112,0.83274 2.52109,2.4959 c 0.28017,0.27736 0.51147,0.61516 0.84114,0.83274 0.52123,0.34402 1.23699,0.3919 1.67994,0.83045 1.64008,1.62368 1.59098,1.73534 1.2617,1.69731 -0.16463,-0.019 -0.39962,-0.0741 -0.52858,0.003 -0.12894,0.0764 -0.15074,0.28626 0.10801,0.7986 0.17718,0.35084 0.61906,0.50408 0.83884,0.83046 0.34748,0.51603 0.49364,1.14942 0.84113,1.66546 0.43954,0.65273 1.32788,0.9615 1.68226,1.66317 0.12529,0.24808 -0.12529,0.58466 0,0.83273 0.17718,0.35084 0.66165,0.4819 0.83882,0.83273 0.56032,0 0.80644,0.13836 0.89398,0.31171 0.0876,0.17335 0.0172,0.38006 -0.0528,0.51875 -0.14008,0.27736 -0.27951,0.27898 0.84112,-0.83046 0.28015,-0.27735 0.50918,-0.61515 0.83883,-0.83273 0.52124,-0.34402 1.2393,-0.39418 1.68227,-0.83273 0.44296,-0.43854 0.49364,-1.14714 0.84112,-1.66317 0.21979,-0.32637 0.55869,-0.55538 0.83884,-0.83274 0.28016,-0.55472 0.49363,-1.14715 0.84112,-1.66318 0.21978,-0.32636 0.56096,-0.55537 0.84113,-0.83272 l 1.67997,-1.66546 1.68225,-1.66319 1.67996,-1.66317 c 0.56031,-0.55473 1.24041,-1.01274 1.67995,-1.66547 0.1554,-0.23078 -0.1981,-0.6366 0,-0.83272 0.1981,-0.19611 0.64304,-0.19611 0.84114,0 0.1981,0.19612 -0.1253,0.58464 0,0.83272 0.17718,0.35084 0.62136,0.50636 0.84112,0.83274 0.34749,0.51603 0.46527,1.16702 0.84113,1.66317 0.95089,1.25518 2.40903,2.07345 3.35992,3.32864 0.37587,0.49616 0.49363,1.14943 0.84113,1.66546 0.21977,0.32637 0.56098,0.55308 0.84112,0.83046 0.56031,0.55472 1.04606,1.19476 1.67997,1.66546 0.40948,0.30402 0.91288,0.46523 1.3766,0.67801 0.46372,0.21279 0.88742,0.47617 1.14448,0.98516 0,1.10944 -0.07,1.04076 0,0.83273 0.035,-0.104 0.10539,-0.24334 0.23671,-0.28667 0.13133,-0.0433 0.32426,0.009 0.60442,0.28667 0.18678,0.18492 0.0234,0.57849 0,0.83273 -0.0234,0.25425 0.094,0.36981 0.84113,0 0.35438,-0.17541 0.48676,-0.65731 0.84113,-0.83273 0.25059,-0.12403 0.58827,0.12404 0.83883,0 0.34775,-0.17213 2.28359,-2.14322 2.52108,-2.4959 0.3475,-0.51604 0.39818,-1.22692 0.84114,-1.66546 0.44296,-0.43855 1.23929,-0.39191 1.68226,-0.83046 0.44296,-0.43854 0.39586,-1.22692 0.83883,-1.66546 0.44298,-0.43854 1.23927,-0.39417 1.68225,-0.83272 0.0539,-0.0534 1.57559,-3.17137 1.67996,-3.32636 0.64652,-0.96009 1.87458,-1.5381 2.52109,-2.49819 0.34751,-0.51604 0.49363,-1.14716 0.84113,-1.66319 0.21977,-0.32636 0.56096,-0.55537 0.84112,-0.83272 0.28015,-0.27737 0.50918,-0.61288 0.83883,-0.83046 0.52124,-0.34403 1.2393,-0.39418 1.68226,-0.83273 0.19811,-0.19612 -0.12528,-0.58465 0,-0.83273 0.17719,-0.35084 0.56097,-0.55536 0.84113,-0.83272 0.28016,-0.27736 0.44264,-0.83046 0.83884,-0.83046 0.17202,0 2.176,2.26817 2.52108,2.49591 0.52123,0.34403 1.23929,0.39418 1.68226,0.83273 1.02067,1.01048 0.95879,1.31453 0.88249,1.52667 -0.0763,0.21213 -0.16797,0.33204 0.79747,0.96925 0.6124,0.40418 1.05086,0.53341 1.43175,0.70531 0.38091,0.17191 0.70392,0.38552 1.08933,0.95786 0.97772,1.45193 1.23382,1.92311 1.16518,1.94076 -0.0686,0.0177 -0.46146,-0.41721 -0.78137,-0.77585 -0.63988,-0.71727 -0.98586,-1.12918 2.13959,2.99646 0.23772,0.3138 0.55867,0.5531 0.83883,0.83046 l 2.52108,2.49818 0.84113,0.83046 c 0.28014,0.27735 0.48675,0.65731 0.84112,0.83272 0.25059,0.12404 0.64304,-0.19612 0.84114,0 0.1981,0.19613 -0.1981,0.63661 0,0.83274 0.1981,0.19613 0.58826,0.12404 0.83883,0 0.70875,-0.35084 1.02291,-1.23031 1.68225,-1.66546 0.52123,-0.34402 1.237,-0.39191 1.67996,-0.83046 0.44297,-0.43854 0.46526,-1.1693 0.84113,-1.66546 0.47544,-0.6276 1.11965,-1.10846 1.67997,-1.66318 0.56032,-0.55471 1.04831,-1.19476 1.68224,-1.66546 0.50115,-0.37211 1.237,-0.3919 1.67997,-0.83044 0.44296,-0.43854 0.44979,-1.18118 0.84112,-1.66547 1.23753,-1.53146 2.80026,-2.77229 4.20105,-4.15909 l 0.84113,-0.83273 c 0.28015,-0.27736 0.66395,-0.4819 0.84113,-0.83273 0.12528,-0.24808 -0.28015,-0.83272 0,-0.83272 0.62745,0 1.50301,0.66021 2.30965,1.40608 0.80665,0.74586 1.54305,1.57768 1.89139,1.92256 l 1.68226,1.66546 c 0.28016,0.27735 0.62136,0.50409 0.84114,0.83045 0.34748,0.51604 0.39586,1.22691 0.83882,1.66546 0.44298,0.43854 1.16101,0.4887 1.68225,0.83273 0.32966,0.21758 0.55868,0.55308 0.83883,0.83044 l 1.68226,1.66546 c 0.28017,0.27736 0.48677,0.65505 0.84114,0.83046 0.25058,0.12404 0.58825,-0.12404 0.83884,0 0.50313,0.24905 0.72283,0.47757 0.80204,0.68028 0.0792,0.20272 0.0194,0.37982 -0.0345,0.52557 -0.0538,0.14577 -0.10168,0.26082 0.002,0.33901 0.10398,0.0782 0.35973,0.1206 0.91237,0.1206 0.28015,0 0.64073,0.19611 0.83883,0 0.1981,-0.19612 -0.1554,-0.60195 0,-0.83274 0.75569,-1.1222 1.15046,-1.64738 1.36512,-1.85202 0.21465,-0.20465 0.24972,-0.0875 0.28727,0.0728 0.0376,0.16035 0.079,0.36394 0.30335,0.33673 0.22435,-0.0272 0.6314,-0.28609 1.40649,-1.05343 0.71427,-0.70713 1.05123,-1.71501 1.68225,-2.4959 0.49501,-0.61259 1.20452,-1.03787 1.67996,-1.66546 1.02937,-1.35879 0.85641,-1.55297 0.82734,-1.72688 -0.0291,-0.17394 0.0854,-0.32567 1.69375,-1.59949 0.78878,-0.62472 1.80682,-0.95832 2.52108,-1.66546 0.77508,-0.76732 1.03887,-1.1726 1.06634,-1.3947 0.0275,-0.22211 -0.18045,-0.26088 -0.34242,-0.29805 -0.16197,-0.0372 -0.27794,-0.0719 -0.0712,-0.2844 0.20672,-0.21252 0.73718,-0.60335 1.87071,-1.35149 0.23311,-0.15385 0.64074,0.19613 0.83883,0 0.19811,-0.19612 -0.19809,-0.63432 0,-0.83045 0.19811,-0.19613 0.59055,-0.12404 0.84113,0 0.35437,0.17543 0.51146,0.61287 0.84112,0.83045 1.79227,1.18292 1.72359,0.90877 1.66157,0.78722 -0.062,-0.12154 -0.11699,-0.0908 1.70066,1.7087 2.57332,2.54763 2.30647,2.19825 1.84542,1.80196 -0.23053,-0.19814 -0.51022,-0.40878 -0.5079,-0.27302 0.002,0.13576 0.28742,0.61679 1.18355,1.7997 0.47544,0.62758 1.11966,1.11073 1.67997,1.66546 l 1.68227,1.66317 c 0.56031,0.55472 1.04602,1.19476 1.67994,1.66547 0.50117,0.37211 1.15873,0.48642 1.67996,0.83044 0.57813,0.38157 0.79618,0.70364 0.96983,1.08073 0.17364,0.3771 0.30417,0.8089 0.71243,1.41519 0.69688,1.03487 0.74432,1.05966 0.80437,0.91691 0.0301,-0.0714 0.0631,-0.18518 0.18154,-0.23434 0.11845,-0.0492 0.3221,-0.0339 0.69406,0.15015 0.35437,0.17541 0.48675,0.65731 0.84112,0.83274 0.25058,0.12402 0.56097,0 0.84112,0 0.28016,0 0.58826,0.12402 0.83883,0 0.35438,-0.17543 0.56098,-0.55538 0.84114,-0.83274 l 0.84112,-0.83272 c 1.20681,-1.19475 2.8814,-3.11392 4.20105,-4.15909 0.78877,-0.62472 1.89237,-0.88457 2.5234,-1.66546 0.55344,-0.68489 0.30727,-1.79424 0.83883,-2.49591 0.37587,-0.49617 1.12193,-0.55309 1.68224,-0.83046 l 1.67996,-0.83273 c 0.56032,-0.27736 1.16103,-0.48871 1.68227,-0.83273 0.32965,-0.21759 0.48447,-0.6573 0.83882,-0.83272 0.25059,-0.12404 0.56098,0 0.84113,0 0.28017,0 0.59055,-0.12404 0.84113,0 0.35437,0.17542 0.55867,0.55536 0.83883,0.83272 l 0.84114,0.83273 3.36221,3.32865 c 0.94481,0.93536 3.07753,3.28474 4.14129,4.09766 A 87.398613,106.49571 0 0 0 365.54328,380.45263 Z"
         style="fill:#d7003b;fill-opacity:1;fill-rule:evenodd;stroke:#000000;stroke-width:1.19159484px;stroke-linecap:butt;stroke-linejoin:miter;stroke-opacity:1" />
      <ellipse
         ry="51.588875"
         rx="42.023602"
         cy="365.46457"
         cx="363.86298"
         id="path3340"
         style="fill:#f2b533;fill-opacity:1;fill-rule:evenodd;stroke:#000000;stroke-width:1.17077076px;stroke-linecap:butt;stroke-linejoin:miter;stroke-opacity:1" />
      <ellipse
         ry="7.0726705"
         rx="7.5642481"
         cy="435.77518"
         cx="364.70343"
         id="path4152"
         style="fill:#d7a2ad;fill-opacity:1" />
      <ellipse
         ry="7.0726705"
         rx="7.5642481"
         cy="458.65732"
         cx="365.54391"
         id="path4152-3"
         style="fill:#d7a2ad;fill-opacity:1" />
      <text
         transform="scale(1.0049395,0.99508481)"
         id="text4187"
         y="560.1839"
         x="147.56702"
         style="font-style:normal;font-weight:normal;font-size:86.04929352px;line-height:125%;font-family:sans-serif;letter-spacing:0px;word-spacing:0px;fill:#000000;fill-opacity:1;stroke:none;stroke-width:1px;stroke-linecap:butt;stroke-linejoin:miter;stroke-opacity:1"
         xml:space="preserve"><tspan
           style="fill:#ad0000;fill-opacity:1"
           y="560.1839"
           x="147.56702"
           id="tspan4189"
           sodipodi:role="line">Hum<tspan
   id="tspan4404"
   style="fill:#f2b533;fill-opacity:1">Sc</tspan>an</tspan></text>
      <path
         inkscape:connector-curvature="0"
         id="path4241"
         d="m 353.72133,388.19703 11.26236,3.64349 14.57479,0.22081 10.59986,-4.19552"
         style="fill:none;fill-rule:evenodd;stroke:#d00000;stroke-width:2.2980001;stroke-linecap:butt;stroke-linejoin:miter;stroke-miterlimit:4;stroke-dasharray:none;stroke-opacity:1" />
      <rect
         y="247.153"
         x="196.19907"
         height="310"
         width="9.0765057"
         id="rect4243"
         style="fill:#b80000;fill-opacity:1" />
      <rect
         y="243.79077"
         x="198.57143"
         height="8.5714283"
         width="170"
         id="rect4245"
         style="fill:#b80000;fill-opacity:1" />
      <ellipse
         ry="3.1567266"
         rx="12.121831"
         cy="355.98828"
         cx="354.311"
         id="path4299"
         style="fill:#b80000;fill-opacity:1;stroke-width:0.185;stroke-miterlimit:4;stroke-dasharray:none" />
      <ellipse
         ry="2.7779195"
         rx="12.374369"
         cy="355.6095"
         cx="387.89856"
         id="path4301"
         style="fill:#b80000;fill-opacity:1;stroke-width:0.185;stroke-miterlimit:4;stroke-dasharray:none" />
      <ellipse
         ry="1.0101525"
         rx="12.121831"
         cy="349.67487"
         cx="352.03815"
         id="path4299-5"
         style="fill:#0e0000;fill-opacity:1;stroke-width:0.185;stroke-miterlimit:4;stroke-dasharray:none" />
      <ellipse
         ry="1.0101525"
         rx="12.121831"
         cy="349.04349"
         cx="386.63589"
         id="path4299-5-3"
         style="fill:#0e0000;fill-opacity:1;stroke-width:0.185;stroke-miterlimit:4;stroke-dasharray:none" />
      <path
         transform="matrix(0.92418461,0,0,0.75661144,25.529759,59.290573)"
         inkscape:transform-center-y="5.2692578"
         d="m 365,285.93362 -24.12499,-41.78571 48.24998,-1e-5 z"
         inkscape:randomized="0"
         inkscape:rounded="0"
         inkscape:flatsided="true"
         sodipodi:arg2="2.6179939"
         sodipodi:arg1="1.5707963"
         sodipodi:r2="13.928571"
         sodipodi:r1="27.857143"
         sodipodi:cy="258.07648"
         sodipodi:cx="365"
         sodipodi:sides="3"
         id="path4333"
         style="fill:#b80000;fill-opacity:1;stroke:#d00000;stroke-width:0;stroke-miterlimit:4;stroke-dasharray:none;stroke-opacity:1"
         sodipodi:type="star" />
      <path
         id="path4402"
         d="m 204.11719,345.4082 c -0.004,-0.002 -0.006,-0.008 -0.01,-0.01 -0.0532,-0.0266 -0.12649,0.0266 -0.17969,0 -0.15058,-0.0753 -0.20488,-0.28212 -0.35546,-0.35742 -0.0532,-0.0266 -0.13759,0.0421 -0.17969,0 -0.0421,-0.0421 0.0266,-0.12649 0,-0.17969 -0.0377,-0.0753 -0.14014,-0.10244 -0.17774,-0.17774 -0.10994,-0.2199 0.0199,-0.18003 0.0898,-0.17187 0.07,0.008 0.0789,-0.0148 -0.26953,-0.36328 -0.0421,-0.0421 -0.13564,0.0421 -0.17774,0 -0.0421,-0.0421 0.0266,-0.12649 0,-0.17969 -0.0753,-0.15059 -0.28212,-0.20683 -0.35742,-0.35742 -0.0266,-0.0532 0.0266,-0.12454 0,-0.17774 -0.0377,-0.0753 -0.11823,-0.11823 -0.17773,-0.17773 0,-0.0595 0.0266,-0.12649 0,-0.17969 -0.0753,-0.15059 -0.30423,-0.1977 -0.35743,-0.35742 -0.0377,-0.11294 0.0376,-0.24448 0,-0.35742 -0.0532,-0.15972 -0.28212,-0.20488 -0.35742,-0.35547 -0.0266,-0.0532 0.0421,-0.13759 0,-0.17969 -0.0421,-0.0421 -0.13759,0.0421 -0.17969,0 -0.0842,-0.0842 0.0842,-0.27322 0,-0.35742 -0.0421,-0.0421 -0.13563,0.0421 -0.17773,0 -0.0421,-0.0421 0.0421,-0.13563 0,-0.17773 -0.0421,-0.0421 -0.13563,0.0421 -0.17773,0 -0.0421,-0.0421 0.0266,-0.12649 0,-0.17969 -0.0377,-0.0753 -0.14209,-0.10244 -0.17969,-0.17774 -0.0266,-0.0532 0,-0.11823 0,-0.17773 v -0.35742 -1.25 c 0,-0.14954 0.0339,-0.75678 0,-0.89258 -0.0323,-0.12912 -0.10394,-0.24668 -0.17774,-0.35742 -0.0934,-0.14009 -0.26402,-0.21733 -0.35742,-0.35742 -0.0738,-0.11074 -0.10589,-0.24668 -0.17969,-0.35743 -0.0467,-0.07 -0.11823,-0.11823 -0.17773,-0.17773 -0.11905,-0.11905 -0.21734,-0.26402 -0.35742,-0.35742 -0.0495,-0.033 -0.12454,0.0266 -0.17774,0 -0.0474,-0.0237 -0.51341,-0.48971 -0.53711,-0.53711 -0.0272,-0.0543 0,-0.45476 0,-0.53516 v -1.07031 c 0,-0.15154 0.0328,-0.97387 0,-1.07227 -0.0266,-0.0799 -0.15113,-0.0978 -0.17773,-0.17773 -0.0377,-0.11294 0,-0.23837 0,-0.35742 -0.0595,-0.11905 -0.11823,-0.23837 -0.17773,-0.35742 -0.0595,-0.11904 -0.13759,-0.23116 -0.17969,-0.35743 -0.0188,-0.0565 0.0421,-0.13563 0,-0.17773 -0.0941,-0.0941 -0.28362,-0.0689 -0.35742,-0.17969 -0.066,-0.099 0.0842,-0.27322 0,-0.35742 -0.0842,-0.0842 -0.24449,0.0376 -0.35743,0 -0.0591,-0.0197 -0.0928,-0.0791 -0.13085,-0.13281 l -40.64063,163.93164 8.6582,5.64844 z"
         style="fill:#b80000;fill-opacity:1"
         inkscape:connector-curvature="0" />
      <path
         inkscape:transform-center-y="0.35714286"
         inkscape:transform-center-x="-4.3335624"
         d="m 240,323.07649 -27.23855,17.15475 -1.23718,-32.16665 z"
         inkscape:randomized="0"
         inkscape:rounded="0"
         inkscape:flatsided="true"
         sodipodi:arg2="1.008755"
         sodipodi:arg1="-0.03844259"
         sodipodi:r2="9.2925797"
         sodipodi:r1="18.585159"
         sodipodi:cy="323.79077"
         sodipodi:cx="221.42857"
         sodipodi:sides="3"
         id="path4680"
         style="fill:#f2b533;fill-opacity:1;stroke:#d00000;stroke-width:0;stroke-miterlimit:4;stroke-dasharray:none;stroke-opacity:1"
         sodipodi:type="star" />
      <path
         inkscape:transform-center-y="0.35714286"
         inkscape:transform-center-x="-4.3335624"
         d="m 241.38072,354.86219 -27.23855,17.15476 -1.23718,-32.16666 z"
         inkscape:randomized="0"
         inkscape:rounded="0"
         inkscape:flatsided="true"
         sodipodi:arg2="1.008755"
         sodipodi:arg1="-0.03844259"
         sodipodi:r2="9.2925797"
         sodipodi:r1="18.585159"
         sodipodi:cy="355.57648"
         sodipodi:cx="222.8093"
         sodipodi:sides="3"
         id="path4680-2"
         style="fill:#f2b533;fill-opacity:1;stroke:#d00000;stroke-width:0;stroke-miterlimit:4;stroke-dasharray:none;stroke-opacity:1"
         sodipodi:type="star" />
      <path
         inkscape:transform-center-y="0.35714286"
         inkscape:transform-center-x="-4.3335624"
         d="m 243.52359,387.00504 -27.23855,17.15476 -1.23718,-32.16666 z"
         inkscape:randomized="0"
         inkscape:rounded="0"
         inkscape:flatsided="true"
         sodipodi:arg2="1.008755"
         sodipodi:arg1="-0.03844259"
         sodipodi:r2="9.2925797"
         sodipodi:r1="18.585159"
         sodipodi:cy="387.71933"
         sodipodi:cx="224.95216"
         sodipodi:sides="3"
         id="path4680-2-9"
         style="fill:#f2b533;fill-opacity:1;stroke:#d00000;stroke-width:0;stroke-miterlimit:4;stroke-dasharray:none;stroke-opacity:1"
         sodipodi:type="star" />
      <path
         transform="rotate(148.45334,476.63238,280.48679)"
         inkscape:transform-center-y="-15.046723"
         inkscape:transform-center-x="-32.056988"
         d="m 517.09502,284.14793 -27.23855,17.15475 -1.23718,-32.16665 z"
         inkscape:randomized="0"
         inkscape:rounded="0"
         inkscape:flatsided="true"
         sodipodi:arg2="1.008755"
         sodipodi:arg1="-0.03844259"
         sodipodi:r2="9.2925797"
         sodipodi:r1="18.585159"
         sodipodi:cy="284.86221"
         sodipodi:cx="498.52359"
         sodipodi:sides="3"
         id="path4680-2-9-1"
         style="fill:#f2b533;fill-opacity:1;stroke:#d00000;stroke-width:0;stroke-miterlimit:4;stroke-dasharray:none;stroke-opacity:1"
         sodipodi:type="star" />
      <path
         transform="rotate(163.19282,485.53259,310.08518)"
         inkscape:transform-center-y="-5.6021046"
         inkscape:transform-center-x="-31.42538"
         d="m 517.09502,284.14793 -27.23855,17.15475 -1.23718,-32.16665 z"
         inkscape:randomized="0"
         inkscape:rounded="0"
         inkscape:flatsided="true"
         sodipodi:arg2="1.008755"
         sodipodi:arg1="-0.03844259"
         sodipodi:r2="9.2925797"
         sodipodi:r1="18.585159"
         sodipodi:cy="284.86221"
         sodipodi:cx="498.52359"
         sodipodi:sides="3"
         id="path4680-2-9-1-2"
         style="fill:#f2b533;fill-opacity:1;stroke:#d00000;stroke-width:0;stroke-miterlimit:4;stroke-dasharray:none;stroke-opacity:1"
         sodipodi:type="star" />
      <path
         transform="rotate(-152.17346,504.93466,338.77965)"
         inkscape:transform-center-y="25.509383"
         inkscape:transform-center-x="-24.723615"
         d="m 517.09502,284.14793 -27.23855,17.15475 -1.23718,-32.16665 z"
         inkscape:randomized="0"
         inkscape:rounded="0"
         inkscape:flatsided="true"
         sodipodi:arg2="1.008755"
         sodipodi:arg1="-0.03844259"
         sodipodi:r2="9.2925797"
         sodipodi:r1="18.585159"
         sodipodi:cy="284.86221"
         sodipodi:cx="498.52359"
         sodipodi:sides="3"
         id="path4680-2-9-1-2-7"
         style="fill:#f2b533;fill-opacity:1;stroke:#d00000;stroke-width:0;stroke-miterlimit:4;stroke-dasharray:none;stroke-opacity:1"
         sodipodi:type="star" />
    </g>
  </g>
</svg>
